<mxfile host="app.diagrams.net" modified="2024-01-19T13:32:54.937Z" agent="Mozilla/5.0 (Windows NT 10.0; Win64; x64) AppleWebKit/537.36 (KHTML, like Gecko) Chrome/120.0.0.0 Safari/537.36" etag="DVvj4NZGzsbOTjie2Toj" version="22.1.21" type="device">
  <diagram name="第 1 页" id="MNTV6ORvHxnKdRQ_5J4C">
    <mxGraphModel dx="1741" dy="2498" grid="1" gridSize="10" guides="1" tooltips="1" connect="1" arrows="1" fold="1" page="1" pageScale="1" pageWidth="827" pageHeight="1169" math="0" shadow="0">
      <root>
        <mxCell id="0" />
        <mxCell id="1" parent="0" />
        <mxCell id="v_xZNHyKCCPbT_PBywz_-13" style="edgeStyle=orthogonalEdgeStyle;rounded=0;orthogonalLoop=1;jettySize=auto;html=1;exitX=1;exitY=0.5;exitDx=0;exitDy=0;entryX=0;entryY=0.5;entryDx=0;entryDy=0;" edge="1" parent="1" source="v_xZNHyKCCPbT_PBywz_-1" target="v_xZNHyKCCPbT_PBywz_-2">
          <mxGeometry relative="1" as="geometry" />
        </mxCell>
        <mxCell id="v_xZNHyKCCPbT_PBywz_-16" value="aViewer-&amp;gt;CreateView();" style="edgeLabel;html=1;align=center;verticalAlign=middle;resizable=0;points=[];" vertex="1" connectable="0" parent="v_xZNHyKCCPbT_PBywz_-13">
          <mxGeometry x="0.6859" y="5" relative="1" as="geometry">
            <mxPoint as="offset" />
          </mxGeometry>
        </mxCell>
        <mxCell id="v_xZNHyKCCPbT_PBywz_-14" style="edgeStyle=orthogonalEdgeStyle;rounded=0;orthogonalLoop=1;jettySize=auto;html=1;exitX=1;exitY=0.5;exitDx=0;exitDy=0;entryX=0;entryY=0.5;entryDx=0;entryDy=0;" edge="1" parent="1" source="v_xZNHyKCCPbT_PBywz_-1" target="v_xZNHyKCCPbT_PBywz_-5">
          <mxGeometry relative="1" as="geometry" />
        </mxCell>
        <mxCell id="v_xZNHyKCCPbT_PBywz_-15" value="new AIS_InteractiveContext(aViewer);" style="edgeLabel;html=1;align=center;verticalAlign=middle;resizable=0;points=[];" vertex="1" connectable="0" parent="v_xZNHyKCCPbT_PBywz_-14">
          <mxGeometry x="0.763" relative="1" as="geometry">
            <mxPoint x="1" as="offset" />
          </mxGeometry>
        </mxCell>
        <mxCell id="v_xZNHyKCCPbT_PBywz_-1" value="aViewer" style="rounded=0;whiteSpace=wrap;html=1;" vertex="1" parent="1">
          <mxGeometry x="-340" y="190" width="120" height="60" as="geometry" />
        </mxCell>
        <mxCell id="v_xZNHyKCCPbT_PBywz_-2" value="myView" style="rounded=0;whiteSpace=wrap;html=1;" vertex="1" parent="1">
          <mxGeometry x="100" y="60" width="120" height="60" as="geometry" />
        </mxCell>
        <mxCell id="v_xZNHyKCCPbT_PBywz_-5" value="myContext" style="rounded=0;whiteSpace=wrap;html=1;" vertex="1" parent="1">
          <mxGeometry x="100" y="350" width="120" height="60" as="geometry" />
        </mxCell>
      </root>
    </mxGraphModel>
  </diagram>
</mxfile>
